<svg xmlns="http://www.w3.org/2000/svg" viewBox="0 0 512 512">
  <defs>
    <linearGradient id="sky" x1="0" x2="0" y1="0" y2="1">
      <stop stop-color="#1a4f91"/>
      <stop offset="1" stop-color="#0b1020"/>
    </linearGradient>
    <radialGradient id="sun" cx="50%" cy="50%" r="50%">
      <stop stop-color="#ffe98a"/>
      <stop offset="1" stop-color="#e1a825"/>
    </radialGradient>
  </defs>
  <rect width="512" height="512" rx="104" fill="url(#sky)"/>
  <path d="M0 355c73-78 123-26 185-74 75-58 119 32 197-25 45-33 85-18 130-47v303H0z" fill="#174b7a"/>
  <path d="M0 403c69-41 125-28 189-2 70 28 125-18 196-7 49 8 85 29 127 8v110H0z" fill="#123756"/>
  <circle cx="371" cy="129" r="58" fill="url(#sun)"/>
  <g fill="#f6c844">
    <ellipse cx="154" cy="275" rx="27" ry="73" transform="rotate(-68 154 275)"/>
    <ellipse cx="154" cy="275" rx="27" ry="73" transform="rotate(-23 154 275)"/>
    <ellipse cx="154" cy="275" rx="27" ry="73" transform="rotate(22 154 275)"/>
    <ellipse cx="154" cy="275" rx="27" ry="73" transform="rotate(67 154 275)"/>
    <ellipse cx="154" cy="275" rx="27" ry="73" transform="rotate(112 154 275)"/>
    <ellipse cx="154" cy="275" rx="27" ry="73" transform="rotate(157 154 275)"/>
  </g>
  <circle cx="154" cy="275" r="44" fill="#70421e"/>
  <path d="M161 313v119" fill="none" stroke="#3e703b" stroke-linecap="round" stroke-width="18"/>
  <path d="M160 370c-58-38-67 17-71 30 38 5 70-1 71-30zm2 21c51-35 65 17 68 31-37 6-67-1-68-31z" fill="#4f8b45"/>
  <text x="256" y="476" fill="#fff1bd" font-family="Georgia,serif" font-size="35" text-anchor="middle">VAN GOGH</text>
</svg>
